<svg id="Smooth" enable-background="new 0 0 128 128" height="512" viewBox="0 0 128 128" width="512" xmlns="http://www.w3.org/2000/svg" xmlns:xlink="http://www.w3.org/1999/xlink"><linearGradient id="SVGID_1_" gradientUnits="userSpaceOnUse" x1="-16.244" x2="-1.744" y1="24.811" y2="26.811"><stop offset="0" stop-color="#dd464e"/><stop offset="1" stop-color="#c82e37"/></linearGradient><linearGradient id="lg1"><stop offset="0" stop-color="#58595b"/><stop offset="1" stop-color="#414042"/></linearGradient><linearGradient id="SVGID_2_" gradientUnits="userSpaceOnUse" x1="-1.495" x2="3.831" xlink:href="#lg1" y1="41.485" y2="42.468"/><linearGradient id="SVGID_3_" gradientUnits="userSpaceOnUse" x1="-1.689" x2="3.727" xlink:href="#lg1" y1="40.227" y2="41.227"/><linearGradient id="lg2"><stop offset="0" stop-color="#7c7e81"/><stop offset="1" stop-color="#6d6e71"/></linearGradient><linearGradient id="SVGID_4_" gradientUnits="userSpaceOnUse" x1="-3.45" x2="2.504" xlink:href="#lg2" y1="31.796" y2="32.21"/><linearGradient id="SVGID_5_" gradientUnits="userSpaceOnUse" x1="-10.417" x2="-5.083" xlink:href="#lg1" y1="26" y2="26"/><linearGradient id="SVGID_6_" gradientUnits="userSpaceOnUse" x1="-3.064" x2="2.936" xlink:href="#lg2" y1="22.432" y2="22.849"/><linearGradient id="lg3"><stop offset="0" stop-color="#689c72"/><stop offset="1" stop-color="#2e7452"/></linearGradient><linearGradient id="SVGID_7_" gradientUnits="userSpaceOnUse" x1="-54.646" x2="-38.589" xlink:href="#lg3" y1="83.016" y2="81.203"/><linearGradient id="SVGID_8_" gradientUnits="userSpaceOnUse" x1="89.278" x2="92.444" xlink:href="#lg1" y1="-7.647" y2="43.186"/><linearGradient id="SVGID_9_" gradientUnits="userSpaceOnUse" x1="-56.257" x2="-40.757" xlink:href="#lg3" y1="31.436" y2="29.686"/><linearGradient id="SVGID_10_" gradientUnits="userSpaceOnUse" x1="-51.553" x2="-36.053" xlink:href="#lg3" y1="73.103" y2="71.353"/><linearGradient id="lg4"><stop offset="0" stop-color="#6c6f73"/><stop offset="1" stop-color="#56585b"/></linearGradient><linearGradient id="SVGID_11_" gradientUnits="userSpaceOnUse" x1="42.585" x2="41.21" xlink:href="#lg4" y1="58.096" y2="65.346"/><linearGradient id="SVGID_12_" gradientUnits="userSpaceOnUse" x1="34.863" x2="33.488" xlink:href="#lg4" y1="56.631" y2="63.881"/><linearGradient id="SVGID_13_" gradientUnits="userSpaceOnUse" x1="27.141" x2="25.766" xlink:href="#lg4" y1="55.167" y2="62.417"/><linearGradient id="SVGID_14_" gradientUnits="userSpaceOnUse" x1="19.419" x2="18.044" xlink:href="#lg4" y1="53.702" y2="60.952"/><linearGradient id="SVGID_15_" gradientUnits="userSpaceOnUse" x1="25.994" x2="26.494" xlink:href="#lg3" y1="55.124" y2="23.874"/><linearGradient id="lg5"><stop offset="0" stop-color="#957e7f"/><stop offset="1" stop-color="#373638"/></linearGradient><linearGradient id="SVGID_16_" gradientUnits="userSpaceOnUse" x1="18.722" x2="19.722" xlink:href="#lg5" y1="23.266" y2="40.266"/><linearGradient id="lg6"><stop offset="0" stop-color="#ffd385"/><stop offset=".8238" stop-color="#ff9b34"/></linearGradient><linearGradient id="SVGID_17_" gradientUnits="userSpaceOnUse" x1="23" x2="23" xlink:href="#lg6" y1="11.667" y2="161.335"/><linearGradient id="SVGID_18_" gradientUnits="userSpaceOnUse" x1="-29.689" x2="-26.689" xlink:href="#lg1" y1="93.073" y2="93.24"/><linearGradient id="SVGID_19_" gradientUnits="userSpaceOnUse" x1=".706" x2="5.644" xlink:href="#lg6" y1="95.153" y2="95.341"/><linearGradient id="SVGID_20_" gradientUnits="userSpaceOnUse" x1="35.978" x2="36.728" y1="72.227" y2="81.602"><stop offset=".0487" stop-color="#f37e3e"/><stop offset="1" stop-color="#ea5c43"/></linearGradient><linearGradient id="lg7"><stop offset="0" stop-color="#50a7d1"/><stop offset="1" stop-color="#198cc3"/></linearGradient><linearGradient id="SVGID_21_" gradientUnits="userSpaceOnUse" x1="52" x2="35" xlink:href="#lg7" y1="36" y2="36"/><linearGradient id="SVGID_22_" gradientUnits="userSpaceOnUse" x1="52" x2="35" xlink:href="#lg7" y1="49" y2="49"/><linearGradient id="SVGID_23_" gradientUnits="userSpaceOnUse" x1="94.822" x2="95.322" xlink:href="#lg3" y1="56.193" y2="24.943"/><linearGradient id="SVGID_24_" gradientUnits="userSpaceOnUse" x1="44.676" x2="47.176" xlink:href="#lg4" y1="97.752" y2="96.752"/><linearGradient id="SVGID_25_" gradientUnits="userSpaceOnUse" x1="92.942" x2="93.942" xlink:href="#lg5" y1="19.018" y2="36.018"/><linearGradient id="SVGID_26_" gradientUnits="userSpaceOnUse" x1="70.708" x2="55.444" y1="86.791" y2="86.089"><stop offset=".0399" stop-color="#fb9e4b"/><stop offset=".8094" stop-color="#f37e3e"/></linearGradient><linearGradient id="SVGID_27_" gradientUnits="userSpaceOnUse" x1="97" x2="97" xlink:href="#lg6" y1="-30.756" y2="244.68"/><linearGradient id="SVGID_28_" gradientUnits="userSpaceOnUse" x1="-27.025" x2="-24.025" xlink:href="#lg1" y1="81.11" y2="81.276"/><linearGradient id="SVGID_29_" gradientUnits="userSpaceOnUse" x1="-26.471" x2="-23.471" xlink:href="#lg1" y1="71.141" y2="71.307"/><linearGradient id="SVGID_30_" gradientUnits="userSpaceOnUse" x1="-27.579" x2="-24.579" xlink:href="#lg1" y1="91.079" y2="91.246"/><linearGradient id="SVGID_31_" gradientUnits="userSpaceOnUse" x1="-26.994" x2="-23.994" xlink:href="#lg1" y1="80.556" y2="80.723"/><linearGradient id="SVGID_32_" gradientUnits="userSpaceOnUse" x1="-27.055" x2="-24.055" xlink:href="#lg1" y1="81.664" y2="81.83"/><linearGradient id="SVGID_33_" gradientUnits="userSpaceOnUse" x1="78.372" x2="82.538" xlink:href="#lg1" y1="18.372" y2="76.372"/><g><g><path d="m31 38h-1c-3.309 0-6-2.691-6-6v-3c0-2.206-1.794-4-4-4-.553 0-1-.448-1-1s.447-1 1-1c3.309 0 6 2.691 6 6v3c0 2.206 1.794 4 4 4h1c.553 0 1 .448 1 1s-.447 1-1 1z" fill="url(#SVGID_1_)"/></g><path d="m21 56h-6v-21c0-.552.448-1 1-1h4c.552 0 1 .448 1 1z" fill="url(#SVGID_2_)"/><path d="m33 40h4v14h-4z" fill="url(#SVGID_3_)"/><path d="m31 29h8v10c0 .552-.448 1-1 1h-6c-.552 0-1-.448-1-1z" fill="url(#SVGID_4_)"/><path d="m41 29h-12c0-3.314 2.686-6 6-6 3.314 0 6 2.686 6 6z" fill="url(#SVGID_5_)"/><path d="m16 16v18h4v-16h3c.552 0 1-.448 1-1v-2c0-.552-.448-1-1-1h-5c-1.105 0-2 .895-2 2z" fill="url(#SVGID_6_)"/><path d="m7 63 3 28h53v-41l-49 4c-4.472.407-7 5-7 9z" fill="url(#SVGID_7_)"/><path d="m113 22h-44c-1.105 0-2-.895-2-2 0-1.105.895-2 2-2h44c1.105 0 2 .895 2 2 0 1.105-.895 2-2 2z" fill="url(#SVGID_8_)"/><path d="m113 18h-44l2.098-5c.89-1.558 2.107-2 3.902-2h32c1.794 0 3.11.442 4 2z" fill="url(#SVGID_9_)"/><path d="m69 22-6 27v42h59l-9-69z" fill="url(#SVGID_10_)"/><g><path d="m37 63h4v28h-4z" fill="url(#SVGID_11_)"/><path d="m29 63h4v28h-4z" fill="url(#SVGID_12_)"/><path d="m21 63h4v28h-4z" fill="url(#SVGID_13_)"/><path d="m13 63h4v28h-4z" fill="url(#SVGID_14_)"/></g><g><path d="m42 91h7c-2.119-11.937-12.554-21-25.072-21-8.675 0-16.928 4-21.928 11 0 0 0 5 6 2 0 0 20-13 34 8z" fill="url(#SVGID_15_)"/><circle cx="23" cy="96" fill="url(#SVGID_16_)" r="21"/><circle cx="23" cy="96" fill="url(#SVGID_17_)" r="11"/><circle cx="23" cy="96" fill="url(#SVGID_18_)" r="4"/><g><path d="m23 108c-6.617 0-12-5.383-12-12s5.383-12 12-12 12 5.383 12 12-5.383 12-12 12zm0-22c-5.514 0-10 4.486-10 10s4.486 10 10 10 10-4.486 10-10-4.486-10-10-10z" fill="url(#SVGID_19_)"/></g></g><path d="m7 63 .308 2.768 55.692-3.768v-5l-55.747 3.772c-.166.743-.253 1.495-.253 2.228z" fill="url(#SVGID_20_)"/><g><path d="m110.854 46h-12.854c-.552 0-1-.448-1-1v-18c0-.552.448-1 1-1h10.127c.5 0 .923.369.991.865l2.727 18c.082.6-.385 1.135-.991 1.135z" fill="url(#SVGID_21_)"/><path d="m92 26h-18.272c-.5 0-.923.369-.991.865l-4.737 21.135v24h25v-45c0-.552-.448-1-1-1z" fill="url(#SVGID_22_)"/></g><path d="m63 89c0-19.33 15.67-35 35-35 0 0 16.036.268 26.001 8.002 2.937 2.279 2.013 3.987 1 5l-7.001 4.998v17z" fill="url(#SVGID_23_)"/><path d="m60 94h11v-9h-11c-1.105 0-2 .895-2 2v5c0 1.105.895 2 2 2z" fill="url(#SVGID_24_)"/><g><circle cx="97" cy="88" fill="url(#SVGID_25_)" r="29"/><circle cx="97" cy="88" fill="url(#SVGID_26_)" r="20"/><circle cx="97" cy="88" fill="url(#SVGID_27_)" r="16"/><circle cx="97" cy="88" fill="url(#SVGID_28_)" r="4"/><circle cx="97" cy="78" fill="url(#SVGID_29_)" r="2"/><circle cx="97" cy="98" fill="url(#SVGID_30_)" r="2"/><circle cx="107" cy="88" fill="url(#SVGID_31_)" r="2"/><circle cx="87" cy="88" fill="url(#SVGID_32_)" r="2"/></g><path d="m93 46h-24.591l-.409 2v2h25z" fill="url(#SVGID_33_)"/></g></svg>